<svg width="256" height="256" viewBox="0 0 256 256" fill="none" xmlns="http://www.w3.org/2000/svg">
<path d="M251.12 67.955V209.095C251.12 214.615 246.64 219.095 241.12 219.095H14.88C9.36 219.095 4.88 214.615 4.88 209.095V67.955C4.88 62.435 9.36 57.95 14.88 57.95H241.12C246.64 57.95 251.12 62.435 251.12 67.955Z" fill="#A3A3A3"/>
<path d="M171.825 29.279V57.95H157.702V32.538H98.299V57.95H84.176V29.279C84.176 23.279 89.04 18.415 95.04 18.415H160.961C166.961 18.415 171.825 23.279 171.825 29.279Z" fill="#FC5D3D"/>
<path d="M55.57 43.915H35.32C33.9939 43.915 32.7222 44.4418 31.7845 45.3795C30.8468 46.3172 30.32 47.589 30.32 48.915V57.95H60.57V48.915C60.57 47.589 60.0432 46.3172 59.1055 45.3795C58.1679 44.4418 56.8961 43.915 55.57 43.915ZM220.68 43.915H200.43C199.104 43.915 197.832 44.4418 196.894 45.3795C195.957 46.3172 195.43 47.589 195.43 48.915V57.95H225.68V48.915C225.68 47.589 225.153 46.3172 224.216 45.3795C223.278 44.4418 222.006 43.915 220.68 43.915Z" fill="#7D7B79"/>
<path d="M133.519 88.3161L146.69 115.003L176.141 119.282C181.189 120.015 183.204 126.219 179.552 129.779L158.241 150.552L163.272 179.884C164.134 184.911 158.858 188.745 154.343 186.372L128 172.523L101.658 186.372C97.143 188.746 91.866 184.912 92.729 179.884L97.76 150.552L76.449 129.78C72.796 126.22 74.812 120.016 79.86 119.283L109.311 115.004L122.482 88.3171C124.739 83.7421 131.261 83.7421 133.519 88.3161Z" fill="#F1BF21"/>
<path d="M62.631 178.136C58.948 176.919 55.144 175.855 53.008 166.656C51.041 175.129 47.89 176.648 43.385 178.136C50.732 180.564 51.84 184.583 53.008 189.616C55.021 180.94 58.351 179.55 62.631 178.136ZM186.51 83.636C182.827 82.419 179.023 81.355 176.887 72.156C174.92 80.629 171.769 82.148 167.264 83.636C174.611 86.064 175.719 90.083 176.887 95.116C178.901 86.44 182.231 85.05 186.51 83.636ZM212.615 111.535C208.932 110.318 205.128 109.254 202.992 100.054C201.025 108.527 197.874 110.046 193.369 111.535C200.716 113.963 201.824 117.982 202.992 123.015C205.006 114.339 208.336 112.949 212.615 111.535Z" fill="#F0C020"/>
<path d="M50.598 190.176C49.531 185.577 48.827 182.539 42.609 180.485C40.35 179.739 40.355 176.533 42.609 175.788C46.352 174.551 48.825 173.734 50.598 166.096C51.187 163.558 54.826 163.551 55.416 166.096C57.229 173.907 59.938 174.645 63.405 175.787C65.664 176.533 65.659 179.739 63.405 180.484C59.796 181.676 57.187 182.538 55.416 190.175C54.825 192.726 51.191 192.726 50.598 190.176ZM49.185 178.193C50.965 179.415 52.181 180.811 53.057 182.287C54.118 180.412 55.347 179.121 56.716 178.159C55.404 177.22 54.133 175.89 53.017 173.88C51.914 175.864 50.625 177.205 49.185 178.193ZM174.478 95.6761C173.411 91.0771 172.707 88.0391 166.489 85.9851C164.23 85.2391 164.235 82.0331 166.489 81.2881C170.232 80.0511 172.705 79.2341 174.478 71.5961C175.067 69.0581 178.706 69.0511 179.296 71.5961C181.109 79.4071 183.818 80.1451 187.285 81.2871C189.544 82.0331 189.539 85.2391 187.285 85.9841C183.676 87.1761 181.067 88.0381 179.296 95.6751C178.705 98.2261 175.071 98.2261 174.478 95.6761ZM173.065 83.6931C174.845 84.9151 176.061 86.3111 176.937 87.7871C177.998 85.9121 179.227 84.6211 180.596 83.6591C179.284 82.7201 178.013 81.3901 176.897 79.3801C175.794 81.3641 174.505 82.7051 173.065 83.6931ZM200.583 123.574C199.516 118.975 198.812 115.937 192.594 113.883C190.335 113.137 190.34 109.931 192.594 109.186C196.337 107.949 198.81 107.132 200.583 99.4941C201.172 96.9561 204.811 96.9491 205.401 99.4941C207.214 107.305 209.923 108.043 213.39 109.185C215.649 109.931 215.644 113.137 213.39 113.882C209.781 115.074 207.172 115.936 205.401 123.573C204.81 126.124 201.176 126.125 200.583 123.574ZM199.17 111.591C200.95 112.813 202.166 114.209 203.042 115.685C204.103 113.81 205.332 112.519 206.701 111.557C205.388 110.618 204.118 109.288 203.002 107.278C201.899 109.263 200.61 110.604 199.17 111.591Z" fill="black"/>
<path d="M240.12 210.595H29.26C28.597 210.595 27.9611 210.332 27.4922 209.863C27.0234 209.394 26.76 208.758 26.76 208.095C26.76 207.432 27.0234 206.796 27.4922 206.327C27.9611 205.858 28.597 205.595 29.26 205.595H237.62V68.9551C237.62 68.292 237.883 67.6562 238.352 67.1873C238.821 66.7185 239.457 66.4551 240.12 66.4551C240.783 66.4551 241.419 66.7185 241.888 67.1873C242.357 67.6562 242.62 68.292 242.62 68.9551V208.095C242.62 208.758 242.357 209.394 241.888 209.863C241.419 210.332 240.783 210.595 240.12 210.595ZM19.26 210.595H15.88C15.217 210.595 14.5811 210.332 14.1122 209.863C13.6434 209.394 13.38 208.758 13.38 208.095C13.38 207.432 13.6434 206.796 14.1122 206.327C14.5811 205.858 15.217 205.595 15.88 205.595H19.26C19.923 205.595 20.5589 205.858 21.0278 206.327C21.4966 206.796 21.76 207.432 21.76 208.095C21.76 208.758 21.4966 209.394 21.0278 209.863C20.5589 210.332 19.923 210.595 19.26 210.595Z" fill="#E6E6E6"/>
<path d="M4.88 160.405C6.26072 160.405 7.38 159.286 7.38 157.905C7.38 156.524 6.26072 155.405 4.88 155.405C3.49929 155.405 2.38 156.524 2.38 157.905C2.38 159.286 3.49929 160.405 4.88 160.405Z" fill="black"/>
<path d="M14.88 221.595H110.83V237.585C110.83 238.965 111.96 240.085 113.33 240.085C113.993 240.085 114.629 239.822 115.098 239.353C115.567 238.884 115.83 238.248 115.83 237.585V221.595H125.5V231.755C125.5 232.418 125.763 233.054 126.232 233.523C126.701 233.992 127.337 234.255 128 234.255C128.663 234.255 129.299 233.992 129.768 233.523C130.237 233.054 130.5 232.418 130.5 231.755V221.595H140.17V237.585C140.17 238.248 140.433 238.884 140.902 239.353C141.371 239.822 142.007 240.085 142.67 240.085C144.04 240.085 145.17 238.965 145.17 237.585V221.595H241.12C248.01 221.595 253.62 215.985 253.62 209.095V67.955C253.62 61.065 248.01 55.455 241.12 55.455H228.18V48.915C228.18 44.785 224.81 41.415 220.68 41.415H200.43C196.3 41.415 192.93 44.785 192.93 48.915V55.455H174.33V29.275C174.32 21.915 168.33 15.915 160.96 15.915H152.16C151.497 15.915 150.861 16.1784 150.392 16.6473C149.923 17.1161 149.66 17.752 149.66 18.415C149.66 19.0781 149.923 19.714 150.392 20.1828C150.861 20.6516 151.497 20.915 152.16 20.915H160.96C165.57 20.925 169.32 24.675 169.33 29.275V55.445H160.2V32.535C160.2 31.15 159.057 30.035 157.7 30.035H98.3C96.947 30.035 95.8 31.145 95.8 32.535V55.445H86.67V29.275C86.68 24.675 90.44 20.925 95.04 20.915H132.16C132.823 20.915 133.459 20.6516 133.928 20.1828C134.397 19.714 134.66 19.0781 134.66 18.415C134.66 17.752 134.397 17.1161 133.928 16.6473C133.459 16.1784 132.823 15.915 132.16 15.915H95.04C87.67 15.915 81.68 21.915 81.67 29.275V55.455H63.07V48.915C63.07 44.785 59.71 41.415 55.57 41.415H35.32C31.19 41.415 27.82 44.785 27.82 48.915V55.455H14.88C7.99001 55.455 2.38 61.065 2.38 67.955V147.905C2.38 148.568 2.6434 149.204 3.11224 149.673C3.58108 150.142 4.21696 150.405 4.88 150.405C5.54305 150.405 6.17893 150.142 6.64777 149.673C7.11661 149.204 7.38 148.568 7.38 147.905V67.955C7.39 63.825 10.75 60.465 14.88 60.455H241.12C245.25 60.465 248.61 63.825 248.62 67.955V209.095C248.61 213.225 245.25 216.585 241.12 216.595H145.17V197.925C145.17 196.545 144.04 195.425 142.67 195.425C142.007 195.425 141.371 195.688 140.902 196.157C140.433 196.626 140.17 197.262 140.17 197.925V216.595H130.5V192.085C130.5 190.715 129.38 189.585 128 189.585C126.62 189.585 125.5 190.715 125.5 192.085V216.595H115.83V197.925C115.83 197.262 115.567 196.626 115.098 196.157C114.629 195.688 113.993 195.425 113.33 195.425C111.96 195.425 110.83 196.545 110.83 197.925V216.595H14.88C10.75 216.585 7.39 213.225 7.38 209.095V167.905C7.38 167.242 7.11661 166.606 6.64777 166.137C6.17893 165.668 5.54305 165.405 4.88 165.405C4.21696 165.405 3.58108 165.668 3.11224 166.137C2.6434 166.606 2.38 167.242 2.38 167.905V209.095C2.38 215.985 7.99001 221.595 14.88 221.595ZM197.93 48.915C197.93 47.535 199.06 46.415 200.43 46.415H220.68C221.343 46.415 221.979 46.6784 222.448 47.1473C222.917 47.6161 223.18 48.252 223.18 48.915V55.445H197.93V48.915ZM32.82 48.915C32.82 47.545 33.94 46.415 35.32 46.415H55.57C56.95 46.415 58.07 47.545 58.07 48.915V55.445H32.82V48.915ZM100.8 35.035H155.2V55.455H100.8V35.035Z" fill="black"/>
<path d="M142.16 20.915C143.541 20.915 144.66 19.7958 144.66 18.415C144.66 17.0343 143.541 15.915 142.16 15.915C140.779 15.915 139.66 17.0343 139.66 18.415C139.66 19.7958 140.779 20.915 142.16 20.915Z" fill="black"/>
<path d="M112.77 107.985C111.56 107.385 110.02 107.915 109.43 109.125L107.65 112.715L79.5 116.805C72.375 117.852 69.569 126.608 74.71 131.565L95.07 151.425L90.26 179.465C89.083 186.664 96.571 191.883 102.82 188.585L128 175.345L153.18 188.585C159.452 191.895 166.888 186.63 165.74 179.465L160.93 151.425L181.3 131.565C186.412 126.606 183.616 117.85 176.5 116.805L148.35 112.715L135.76 87.215C132.608 80.78 123.397 80.77 120.24 87.215L118.28 91.185C117.67 92.425 118.18 93.925 119.41 94.535C120.63 95.135 122.17 94.605 122.76 93.395L124.72 89.425C126.097 86.691 129.912 86.709 131.28 89.425L144.45 116.105C144.81 116.845 145.52 117.355 146.33 117.475L175.78 121.755C178.719 122.175 180.014 125.791 177.81 127.995L156.5 148.765C155.91 149.335 155.64 150.165 155.78 150.975L160.81 180.305C161.223 183.492 158.097 185.5 155.5 184.155L129.16 170.315C128.45 169.935 127.55 169.935 126.84 170.315L100.49 184.155C97.679 185.638 94.661 183.089 95.19 180.315L100.22 150.975C100.36 150.165 100.09 149.335 99.51 148.765L78.2 127.985C75.978 125.822 77.274 122.176 80.22 121.755L109.67 117.475C110.48 117.355 111.19 116.845 111.55 116.105L113.91 111.335C114.202 110.739 114.246 110.052 114.033 109.424C113.819 108.796 113.365 108.279 112.77 107.985Z" fill="black"/>
<path d="M114.99 103.505C116.197 104.109 117.71 103.635 118.33 102.365C118.476 102.071 118.563 101.751 118.586 101.423C118.608 101.095 118.566 100.767 118.461 100.455C118.356 100.144 118.19 99.8566 117.974 99.6094C117.758 99.3622 117.495 99.1602 117.2 99.015C115.98 98.415 114.45 98.945 113.85 100.155C113.24 101.395 113.75 102.895 114.99 103.505Z" fill="black"/>
</svg>
