<svg width="256" height="256" viewBox="0 0 256 256" fill="none" xmlns="http://www.w3.org/2000/svg">
<path d="M195.69 34.1691V172.039H188.91C183.97 172.039 179.33 169.699 176.38 165.739L170.4 157.709C168.946 155.757 167.056 154.171 164.881 153.079C162.705 151.987 160.304 151.418 157.87 151.419H140.13C137.706 149.594 134.755 148.604 131.72 148.599H100.47C95.1 148.599 89.96 150.749 86.2 154.579L81.36 159.509C77.6 163.339 72.46 165.499 67.09 165.499H60.31V9.08911H170.61L195.69 34.1691Z" fill="#EFEFEF"/>
<path d="M195.69 165.039V172.039H188.91C183.97 172.039 179.33 169.699 176.38 165.739L170.4 157.709C168.946 155.757 167.056 154.171 164.881 153.079C162.705 151.987 160.304 151.418 157.87 151.419H140.13C137.706 149.594 134.755 148.604 131.72 148.599H100.47C95.1 148.599 89.96 150.749 86.2 154.579L81.36 159.509C77.6 163.339 72.46 165.499 67.09 165.499H60.31V158.499H67.09C70.55 158.499 73.94 157.079 76.37 154.609L81.21 149.679C86.24 144.539 93.26 141.599 100.47 141.599H131.72C135.38 141.599 139.02 142.589 142.2 144.419H157.87C164.98 144.419 171.76 147.819 176.01 153.529L181.99 161.559C182.795 162.636 183.839 163.51 185.04 164.114C186.241 164.718 187.566 165.035 188.91 165.039H195.69Z" fill="#AFAFAF"/>
<path d="M209.34 172.039V234.049H182.35C179.32 234.049 176.33 234.739 173.61 236.059L163.84 240.809C161.115 242.129 158.128 242.816 155.1 242.819H100.12C96.26 242.819 92.94 240.319 91.75 236.829H83.53C78.88 236.829 74.37 235.179 70.82 232.169C67.274 229.15 62.7674 227.494 58.11 227.499H46.66V165.499H67.09C72.46 165.499 77.6 163.339 81.36 159.509L86.2 154.579C89.96 150.749 95.1 148.599 100.47 148.599H131.72C134.84 148.599 137.77 149.649 140.13 151.419H157.87C162.81 151.419 167.45 153.749 170.4 157.709L176.38 165.739C179.33 169.699 183.97 172.039 188.91 172.039H209.34Z" fill="#FFB69F"/>
<path d="M222.672 159.17H249.667V246.911H222.672V159.17Z" fill="#7D7B79"/>
<path d="M6.33301 152.625H33.328V240.366H6.33301V152.625Z" fill="#FC3D3D"/>
<path d="M209.337 167.42V238.661C209.337 239.457 209.653 240.22 210.216 240.782C210.778 241.345 211.541 241.661 212.337 241.661H222.672V164.42H212.337C211.541 164.42 210.778 164.736 210.216 165.299C209.653 165.861 209.337 166.624 209.337 167.42ZM46.663 232.116V160.875C46.663 160.079 46.3469 159.316 45.7843 158.754C45.2217 158.191 44.4587 157.875 43.663 157.875H33.328V235.116H43.663C44.4587 235.116 45.2217 234.8 45.7843 234.237C46.3469 233.675 46.663 232.912 46.663 232.116Z" fill="#EFEFEF"/>
<path d="M160.42 71.5061V112.696H142.39L132.25 96.3661C130.29 93.2161 125.71 93.2161 123.75 96.3661L113.61 112.696H95.58V71.5061H160.42Z" fill="#E97272"/>
<path d="M151.23 55.7559V71.5059H141.23V55.7559C141.23 48.4559 135.29 42.5259 128 42.5259C120.71 42.5259 114.77 48.4559 114.77 55.7559V71.5059H104.77V55.7559C104.77 42.9259 115.17 32.5259 128 32.5259C140.832 32.5259 151.23 42.9189 151.23 55.7559Z" fill="#AFAFAF"/>
<path d="M145 131.386H111C107.08 131.386 104.69 127.076 106.75 123.746L113.61 112.696L123.75 96.3659C125.71 93.2159 130.29 93.2159 132.25 96.3659L142.39 112.696L149.25 123.746C151.31 127.076 148.92 131.386 145 131.386Z" fill="#F0C020"/>
<path d="M240.661 239.356H233.354C232.691 239.356 232.055 239.093 231.586 238.624C231.117 238.155 230.854 237.519 230.854 236.856C230.854 236.193 231.117 235.557 231.586 235.088C232.055 234.619 232.691 234.356 233.354 234.356H238.161V183.163C238.161 182.5 238.424 181.864 238.893 181.395C239.362 180.926 239.998 180.663 240.661 180.663C241.324 180.663 241.96 180.926 242.429 181.395C242.898 181.864 243.161 182.5 243.161 183.163V236.856C243.161 237.519 242.898 238.155 242.429 238.624C241.96 239.093 241.324 239.356 240.661 239.356ZM240.661 175.663C239.998 175.663 239.362 175.4 238.893 174.931C238.424 174.462 238.161 173.826 238.161 173.163V168.888C238.161 168.225 238.424 167.589 238.893 167.12C239.362 166.651 239.998 166.388 240.661 166.388C241.324 166.388 241.96 166.651 242.429 167.12C242.898 167.589 243.161 168.225 243.161 168.888V173.163C243.161 173.826 242.898 174.462 242.429 174.931C241.96 175.4 241.324 175.663 240.661 175.663Z" fill="#EFEFEF"/>
<path d="M22.646 233.147H15.339C14.6759 233.147 14.0401 232.884 13.5712 232.415C13.1024 231.946 12.839 231.31 12.839 230.647V177.954C12.839 177.291 13.1024 176.655 13.5712 176.186C14.0401 175.717 14.6759 175.454 15.339 175.454C16.002 175.454 16.6379 175.717 17.1068 176.186C17.5756 176.655 17.839 177.291 17.839 177.954V228.147H22.646C23.309 228.147 23.9449 228.41 24.4138 228.879C24.8826 229.348 25.146 229.984 25.146 230.647C25.146 231.31 24.8826 231.946 24.4138 232.415C23.9449 232.884 23.309 233.147 22.646 233.147ZM15.339 170.454C14.6759 170.454 14.0401 170.191 13.5712 169.722C13.1024 169.253 12.839 168.617 12.839 167.954V162.679C12.839 162.016 13.1024 161.38 13.5712 160.911C14.0401 160.442 14.6759 160.179 15.339 160.179C16.002 160.179 16.6379 160.442 17.1068 160.911C17.5756 161.38 17.839 162.016 17.839 162.679V167.954C17.839 168.617 17.5756 169.253 17.1068 169.722C16.6379 170.191 16.002 170.454 15.339 170.454Z" fill="#FFCBC3"/>
<path d="M152.42 107.195C151.757 107.195 151.121 106.931 150.652 106.463C150.183 105.994 149.92 105.358 149.92 104.695V82.0049H116.58C115.917 82.0049 115.281 81.7415 114.812 81.2727C114.343 80.8038 114.08 80.1679 114.08 79.5049C114.08 78.8418 114.343 78.206 114.812 77.7371C115.281 77.2683 115.917 77.0049 116.58 77.0049H152.42C153.083 77.0049 153.719 77.2683 154.188 77.7371C154.657 78.206 154.92 78.8418 154.92 79.5049V104.695C154.92 105.358 154.657 105.994 154.188 106.463C153.719 106.931 153.083 107.195 152.42 107.195ZM106.58 82.0049H103.58C102.917 82.0049 102.281 81.7415 101.812 81.2727C101.343 80.8038 101.08 80.1679 101.08 79.5049C101.08 78.8418 101.343 78.206 101.812 77.7371C102.281 77.2683 102.917 77.0049 103.58 77.0049H106.58C107.243 77.0049 107.879 77.2683 108.348 77.7371C108.817 78.206 109.08 78.8418 109.08 79.5049C109.08 80.1679 108.817 80.8038 108.348 81.2727C107.879 81.7415 107.243 82.0049 106.58 82.0049Z" fill="#FEC5C6"/>
<path d="M85.72 158.63C86.69 157.65 86.67 156.06 85.69 155.09C84.73 154.16 83.09 154.17 82.15 155.13C81.9205 155.364 81.7394 155.641 81.6171 155.946C81.4949 156.25 81.4339 156.575 81.4376 156.903C81.4413 157.231 81.5097 157.555 81.6388 157.857C81.7679 158.158 81.9552 158.431 82.19 158.66C82.4231 158.891 82.6996 159.074 83.0036 159.197C83.3076 159.321 83.6331 159.383 83.9613 159.38C84.2894 159.378 84.6138 159.31 84.9156 159.181C85.2175 159.052 85.4909 158.865 85.72 158.63Z" fill="black"/>
<path d="M30.828 237.866H6.33301C5.66997 237.866 5.03408 238.13 4.56524 238.598C4.0964 239.067 3.83301 239.703 3.83301 240.366C3.83301 241.029 4.0964 241.665 4.56524 242.134C5.03408 242.603 5.66997 242.866 6.33301 242.866H33.328C33.991 242.866 34.6269 242.603 35.0958 242.134C35.5646 241.665 35.828 241.029 35.828 240.366V237.616H43.663C46.696 237.616 49.163 235.149 49.163 232.116V229.995H58.11C62.182 229.995 66.12 231.441 69.203 234.072C73.2068 237.463 78.2833 239.324 83.53 239.325H90.119C91.0879 241.135 92.5298 242.648 94.2911 243.703C96.0524 244.758 98.067 245.315 100.12 245.315H155.1C158.473 245.315 161.872 244.534 164.933 243.054L174.703 238.304C177.087 237.15 179.701 236.549 182.35 236.545H206.84V238.66C206.84 241.69 209.3 244.16 212.34 244.16H220.172V246.911C220.172 247.574 220.435 248.21 220.904 248.679C221.373 249.148 222.009 249.411 222.672 249.411H249.667C250.33 249.411 250.966 249.148 251.435 248.679C251.904 248.21 252.167 247.574 252.167 246.911C252.167 246.248 251.904 245.612 251.435 245.143C250.966 244.675 250.33 244.411 249.667 244.411H225.172V161.67H249.667C249.995 161.67 250.32 161.605 250.624 161.48C250.927 161.354 251.203 161.17 251.435 160.938C251.667 160.706 251.851 160.43 251.977 160.127C252.102 159.824 252.167 159.498 252.167 159.17C252.167 158.842 252.102 158.517 251.977 158.213C251.851 157.91 251.667 157.634 251.435 157.402C251.203 157.17 250.927 156.986 250.624 156.86C250.32 156.735 249.995 156.67 249.667 156.67H222.672C222.009 156.67 221.373 156.934 220.904 157.402C220.435 157.871 220.172 158.507 220.172 159.17V161.92H212.34C209.3 161.92 206.84 164.39 206.84 167.42V169.54H198.19V34.1691C198.19 33.4891 197.863 32.8071 197.458 32.4011L172.379 7.32111C171.905 6.86028 171.272 6.59838 170.611 6.58911H60.31C59.647 6.58911 59.0111 6.8525 58.5422 7.32134C58.0734 7.79019 57.81 8.42607 57.81 9.08911V163H49.164V160.875C49.164 157.842 46.697 155.375 43.664 155.375H35.829V152.625C35.829 151.962 35.5656 151.326 35.0968 150.857C34.6279 150.389 33.992 150.125 33.329 150.125H6.33301C5.66997 150.125 5.03408 150.389 4.56524 150.857C4.0964 151.326 3.83301 151.962 3.83301 152.625C3.83301 153.288 4.0964 153.924 4.56524 154.393C5.03408 154.862 5.66997 155.125 6.33301 155.125H30.828V237.866ZM209.34 184.87C210.003 184.87 210.639 184.607 211.108 184.138C211.577 183.669 211.84 183.033 211.84 182.37V167.42C211.84 167.14 212.06 166.92 212.34 166.92H220.172V239.16H212.34C212.06 239.16 211.84 238.94 211.84 238.66V202.37C211.84 201.707 211.577 201.071 211.108 200.602C210.639 200.133 210.003 199.87 209.34 199.87C208.677 199.87 208.041 200.133 207.572 200.602C207.103 201.071 206.84 201.707 206.84 202.37V231.545H182.35C178.944 231.55 175.584 232.324 172.518 233.807L162.752 238.555C160.365 239.707 157.75 240.309 155.1 240.315H100.12C99.2537 240.316 98.3964 240.139 97.6012 239.796C96.8059 239.452 96.0898 238.948 95.4969 238.317C94.9041 237.685 94.4473 236.938 94.1547 236.123C93.8621 235.307 93.74 234.441 93.796 233.576C93.993 230.241 96.911 227.628 100.44 227.628C100.467 227.628 100.491 227.621 100.518 227.62H132.428C133.091 227.62 133.727 227.357 134.196 226.888C134.665 226.419 134.928 225.783 134.928 225.12C134.928 224.457 134.665 223.821 134.196 223.352C133.727 222.883 133.091 222.62 132.428 222.62C132.045 222.62 89.081 222.617 88.7 222.625C87.0258 222.61 85.4252 221.935 84.246 220.747C83.0667 219.558 82.404 217.952 82.402 216.278C82.4041 214.595 83.0738 212.981 84.2642 211.79C85.4546 210.6 87.0685 209.93 88.752 209.928H131.722C132.385 209.928 133.021 209.665 133.49 209.196C133.959 208.727 134.222 208.091 134.222 207.428C134.222 206.765 133.959 206.129 133.49 205.66C133.021 205.191 132.385 204.928 131.722 204.928H83.342C81.6585 204.926 80.0446 204.256 78.8542 203.066C77.6638 201.876 76.9941 200.262 76.992 198.578C76.992 195.077 79.841 192.228 83.339 192.228C102.628 192.247 78.898 192.228 131.722 192.228C132.385 192.228 133.021 191.965 133.49 191.496C133.959 191.027 134.222 190.391 134.222 189.728C134.222 189.065 133.959 188.429 133.49 187.96C133.021 187.492 132.385 187.228 131.722 187.228C131.318 187.228 93.508 187.224 93.104 187.235C89.64 187.198 86.832 184.362 86.832 180.878C86.8339 179.197 87.5024 177.586 88.691 176.397C89.8796 175.209 91.4911 174.54 93.172 174.538H131.941L135.392 179.739C138.811 184.948 145.889 186.435 151.178 183.048C156.578 179.564 158.045 172.365 154.514 167.064L145.776 153.909H157.872C162.002 153.909 165.932 155.889 168.392 159.199L174.372 167.229C177.782 171.799 183.222 174.539 188.912 174.539H206.842V182.369C206.842 182.697 206.906 183.023 207.031 183.326C207.157 183.629 207.341 183.905 207.573 184.137C207.805 184.37 208.08 184.554 208.383 184.68C208.687 184.805 209.012 184.87 209.34 184.87ZM173.11 15.1251L189.654 31.6691H173.11V15.1251ZM67.09 167.99C70.68 167.99 74.27 167.12 77.45 165.46C78.643 164.852 79.173 163.341 78.519 162.1C77.844 160.78 76.247 160.435 75.149 161.03C72.6568 162.317 69.894 162.993 67.089 163H62.809V11.5891H168.11V34.1691C168.11 34.8322 168.373 35.468 168.842 35.9369C169.311 36.4057 169.947 36.6691 170.61 36.6691H193.189V169.54H188.91C184.79 169.54 180.849 167.56 178.38 164.24L172.41 156.21C169 151.64 163.569 148.91 157.87 148.91H140.93C138.208 147.079 135.001 146.1 131.72 146.1H100.47C97.05 146.1 93.63 146.89 90.57 148.39C90.2744 148.533 90.01 148.733 89.792 148.979C89.574 149.224 89.4068 149.51 89.3 149.821C89.1932 150.131 89.1489 150.46 89.1697 150.788C89.1904 151.115 89.2758 151.436 89.421 151.73C90.011 152.94 91.541 153.47 92.771 152.88C95.151 151.71 97.811 151.1 100.471 151.1H131.721C135.776 151.1 139.369 153.246 141.398 156.354L141.401 156.358L141.429 156.401L150.35 169.833C152.364 172.857 151.471 176.908 148.473 178.842C145.486 180.755 141.493 179.925 139.564 176.986L135.365 170.656C135.137 170.312 134.827 170.03 134.464 169.835C134.101 169.64 133.695 169.538 133.282 169.538H93.17C86.917 169.538 81.83 174.625 81.83 180.878C81.83 183.229 82.546 185.415 83.771 187.229C76.581 187.221 71.99 192.682 71.99 198.578C71.99 203.588 75.253 207.85 79.764 209.351C74.035 216.766 79.332 227.628 88.749 227.628H90.766C89.418 229.569 88.718 231.852 88.791 234.325H83.53C79.469 234.325 75.53 232.881 72.443 230.263C68.4434 226.859 63.362 224.992 58.11 224.995H49.163V167.99H67.09ZM43.663 160.375C43.7956 160.375 43.9228 160.428 44.0166 160.522C44.1103 160.615 44.163 160.742 44.163 160.875V232.116C44.163 232.249 44.1103 232.376 44.0166 232.47C43.9228 232.563 43.7956 232.616 43.663 232.616H35.828V160.375H43.663Z" fill="black"/>
<path d="M209.34 194.87C210.721 194.87 211.84 193.751 211.84 192.37C211.84 190.989 210.721 189.87 209.34 189.87C207.959 189.87 206.84 190.989 206.84 192.37C206.84 193.751 207.959 194.87 209.34 194.87Z" fill="black"/>
<path d="M95.58 115.195H109.116L104.624 122.43C101.527 127.437 105.125 133.885 111 133.885H145C150.881 133.885 154.471 127.432 151.374 122.426L146.884 115.195H160.42C161.083 115.195 161.719 114.932 162.188 114.463C162.657 113.994 162.92 113.358 162.92 112.695V71.5049C162.92 70.8419 162.657 70.206 162.188 69.7371C161.719 69.2683 161.083 69.0049 160.42 69.0049H153.731V55.7549C153.731 41.5669 142.188 30.0249 128.001 30.0249C113.814 30.0249 102.271 41.5669 102.271 55.7549V69.0049H95.58C94.917 69.0049 94.2811 69.2683 93.8122 69.7371C93.3434 70.206 93.08 70.8419 93.08 71.5049V112.695C93.08 113.358 93.3434 113.994 93.8122 114.463C94.2811 114.932 94.917 115.195 95.58 115.195ZM145 128.886H111C109.037 128.886 107.846 126.726 108.874 125.065L125.873 97.6869C126.855 96.1079 129.147 96.1109 130.126 97.6849L147.124 125.061C148.156 126.73 146.959 128.886 145 128.886ZM107.27 55.7549C107.27 44.3239 116.57 35.0249 128 35.0249C139.43 35.0249 148.73 44.3239 148.73 55.7549V69.0049H143.73V55.7549C143.73 47.0819 136.673 40.0249 128 40.0249C119.327 40.0249 112.27 47.0819 112.27 55.7549V69.0049H107.27V55.7549ZM117.27 69.0049V55.7549C117.27 49.8379 122.083 45.0249 128 45.0249C133.917 45.0249 138.73 49.8379 138.73 55.7549V69.0049H117.27ZM98.08 74.0049H157.92V110.195H143.78L134.373 95.0449C131.433 90.3189 124.563 90.3249 121.626 95.0469L112.221 110.195H98.08V74.0049Z" fill="black"/>
<path d="M128 119.235C127.337 119.235 126.701 119.499 126.232 119.967C125.763 120.436 125.5 121.072 125.5 121.735V122.777C125.5 123.44 125.763 124.076 126.232 124.545C126.701 125.014 127.337 125.277 128 125.277C128.663 125.277 129.299 125.014 129.768 124.545C130.237 124.076 130.5 123.44 130.5 122.777V121.735C130.5 121.072 130.237 120.436 129.768 119.967C129.299 119.499 128.663 119.235 128 119.235ZM128 105.068C127.337 105.068 126.701 105.332 126.232 105.8C125.763 106.269 125.5 106.905 125.5 107.568V113.175C125.5 113.838 125.763 114.474 126.232 114.943C126.701 115.412 127.337 115.675 128 115.675C128.663 115.675 129.299 115.412 129.768 114.943C130.237 114.474 130.5 113.838 130.5 113.175V107.568C130.5 106.905 130.237 106.269 129.768 105.8C129.299 105.332 128.663 105.068 128 105.068Z" fill="black"/>
</svg>
