<svg width="256" height="256" viewBox="0 0 256 256" fill="none" xmlns="http://www.w3.org/2000/svg">
<path d="M191.376 56.087V166.005C168.023 165.275 147.743 184.358 147.743 208.664C147.743 221.38 153.3 232.777 162.111 240.595H28.222C25.315 240.595 22.919 238.228 22.919 235.302V29.408C22.919 26.701 24.998 24.409 27.685 24.145C27.868 24.125 28.04 24.115 28.222 24.115H159.394L191.376 56.087Z" fill="#EFEFEF"/>
<path d="M212.541 9.66992V172.17C206.361 168.41 199.181 166.19 191.381 166V56.0899L159.391 24.1199H27.68V9.66992C27.68 8.34384 28.2068 7.07207 29.1445 6.13439C30.0821 5.19671 31.3539 4.66992 32.68 4.66992H207.54C208.197 4.66979 208.847 4.79902 209.454 5.05024C210.06 5.30145 210.612 5.66973 211.076 6.13403C211.541 6.59834 211.909 7.14958 212.16 7.75627C212.412 8.36297 212.541 9.01323 212.541 9.66992Z" fill="#EFEFEF"/>
<path d="M198.788 160.205V55.2149C198.788 54.5198 198.651 53.8315 198.385 53.1894C198.119 52.5472 197.729 51.9639 197.237 51.4729L164.018 18.2539C163.026 17.2614 161.68 16.7035 160.276 16.7029H27.685V24.1149H159.394L191.376 56.0869V159.495C167.259 157.938 141.223 178.908 141.223 208.664C141.203 220.375 145.384 231.704 153.006 240.595H162.112C153.3 232.777 147.744 221.38 147.744 208.664C147.744 184.358 168.024 165.275 191.377 166.005C199.18 166.193 206.359 168.411 212.539 172.17V164.727C208.206 162.543 203.571 161.018 198.788 160.205Z" fill="#AFAFAF"/>
<path d="M233.082 208.664C233.082 223.235 225.771 236.123 214.597 243.809C207.49 248.722 199.053 251.347 190.413 251.333C181.775 251.346 173.339 248.724 166.229 243.819C164.793 242.827 163.419 241.75 162.112 240.594C153.3 232.776 147.744 221.379 147.744 208.663C147.744 184.357 168.024 165.274 191.377 166.004C199.18 166.192 206.359 168.41 212.539 172.169C224.858 179.653 233.082 193.2 233.082 208.664Z" fill="#F12121"/>
<path d="M203.087 193.293H178.117L178.122 186.067C178.123 184.899 178.587 183.78 179.413 182.955C180.239 182.129 181.359 181.666 182.526 181.666H195.411C196.974 181.666 198.514 181.288 199.899 180.565L205.281 177.755C208.002 183.191 206.865 189.268 203.087 193.293Z" fill="#7C7B7A"/>
<path d="M190.772 214.969H190.427C183.628 214.969 178.117 209.458 178.117 202.659V193.292H203.082V202.659C203.082 209.458 197.57 214.969 190.772 214.969Z" fill="#FFB69F"/>
<path d="M214.597 229.515V243.809C207.489 248.72 199.052 251.345 190.412 251.334C181.773 251.348 173.336 248.727 166.227 243.819V229.516C166.227 221.487 172.743 214.97 180.773 214.97H200.051C208.081 214.969 214.597 221.485 214.597 229.515Z" fill="#838B8E"/>
<path d="M212.792 235.556C212.565 235.319 212.387 235.039 212.268 234.733C212.148 234.428 212.091 234.101 212.098 233.773C212.105 233.445 212.176 233.121 212.309 232.82C212.441 232.52 212.631 232.248 212.868 232.021C219.191 225.966 222.818 217.436 222.818 208.618C222.814 200.715 219.91 193.089 214.657 187.185C214.217 186.689 213.992 186.039 214.031 185.377C214.071 184.715 214.372 184.096 214.867 183.656C215.363 183.215 216.014 182.99 216.676 183.03C217.338 183.069 217.957 183.37 218.397 183.866C224.462 190.685 227.814 199.492 227.818 208.617C227.818 218.792 223.63 228.638 216.327 235.632C216.09 235.859 215.81 236.037 215.504 236.157C215.198 236.276 214.872 236.333 214.544 236.326C214.215 236.319 213.892 236.248 213.591 236.115C213.291 235.983 213.019 235.793 212.792 235.556Z" fill="#F8AFAF"/>
<path d="M189.093 243.646C189.07 242.983 189.311 242.339 189.764 241.854C190.216 241.369 190.842 241.084 191.505 241.061C199.496 240.795 207.105 237.577 212.861 232.027C213.338 231.567 213.979 231.315 214.642 231.327C215.305 231.339 215.936 231.614 216.396 232.092C216.857 232.569 217.109 233.21 217.096 233.873C217.084 234.536 216.809 235.167 216.332 235.627C209.687 242.034 200.903 245.75 191.677 246.058C191.015 246.081 190.37 245.839 189.886 245.387C189.401 244.935 189.116 244.309 189.093 243.646ZM181.061 244.898C180.023 244.631 178.996 244.318 177.985 243.962C177.668 243.859 177.375 243.693 177.124 243.475C176.872 243.257 176.666 242.99 176.519 242.692C176.372 242.393 176.285 242.068 176.265 241.735C176.245 241.403 176.292 241.069 176.403 240.755C176.513 240.441 176.686 240.152 176.91 239.905C177.133 239.659 177.404 239.459 177.706 239.319C178.008 239.178 178.336 239.1 178.668 239.087C179.001 239.075 179.333 239.129 179.645 239.247C180.52 239.555 181.416 239.827 182.307 240.057C182.631 240.133 182.937 240.273 183.206 240.468C183.476 240.664 183.703 240.911 183.876 241.196C184.048 241.481 184.162 241.797 184.211 242.127C184.259 242.456 184.242 242.792 184.159 243.114C184.076 243.437 183.929 243.74 183.727 244.005C183.526 244.27 183.274 244.492 182.985 244.658C182.696 244.824 182.378 244.931 182.047 244.972C181.717 245.013 181.382 244.988 181.061 244.898Z" fill="#7D7B79"/>
<path d="M137.126 234.333H131.948C131.285 234.333 130.649 234.07 130.18 233.601C129.711 233.132 129.448 232.496 129.448 231.833C129.448 231.17 129.711 230.534 130.18 230.065C130.649 229.596 131.285 229.333 131.948 229.333H137.126C137.789 229.333 138.425 229.596 138.894 230.065C139.363 230.534 139.626 231.17 139.626 231.833C139.626 232.496 139.363 233.132 138.894 233.601C138.425 234.07 137.789 234.333 137.126 234.333ZM121.949 234.333H31.667C31.004 234.333 30.3681 234.07 29.8992 233.601C29.4304 233.132 29.167 232.496 29.167 231.833V37.115C29.167 36.4519 29.4304 35.8161 29.8992 35.3472C30.3681 34.8784 31.004 34.615 31.667 34.615C32.33 34.615 32.9659 34.8784 33.4348 35.3472C33.9036 35.8161 34.167 36.4519 34.167 37.115V229.334H121.948C122.602 229.347 123.225 229.616 123.684 230.083C124.142 230.55 124.398 231.179 124.399 231.833C124.399 232.487 124.142 233.116 123.684 233.583C123.226 234.051 122.603 234.32 121.949 234.333Z" fill="white"/>
<path d="M207.541 2.16992H32.68C28.55 2.16992 25.18 5.53992 25.18 9.66992V22.2299C23.7657 22.8217 22.5586 23.8194 21.7111 25.097C20.8637 26.3747 20.4141 27.8748 20.419 29.4079V235.302C20.419 239.629 23.942 243.095 28.222 243.095H161.205C169.718 250.274 179.889 253.83 190.41 253.83C215.373 253.83 235.58 233.589 235.58 208.66C235.58 193.429 227.967 179.251 215.04 170.813V9.66992C215.041 5.52992 211.67 2.16992 207.541 2.16992ZM32.68 7.16992H207.54C208.203 7.16992 208.839 7.43331 209.308 7.90215C209.777 8.371 210.04 9.00688 210.04 9.66992V167.97C205.189 165.621 199.604 164.064 193.88 163.62V56.0899C193.88 55.3969 193.546 54.7149 193.15 54.3199C170.21 31.3939 177.344 38.5249 161.162 22.3469C160.685 21.8904 160.054 21.6292 159.394 21.6149H30.18V9.66992C30.18 9.00688 30.4434 8.371 30.9122 7.90215C31.3811 7.43331 32.017 7.16992 32.68 7.16992ZM161.89 30.1579L185.338 53.5899H164.46C163.05 53.5899 161.89 52.4299 161.89 51.0199V30.1579ZM168.728 242.473V229.515C168.728 222.873 174.131 217.47 180.774 217.47H200.051C206.694 217.47 212.097 222.873 212.097 229.515V242.467C205.632 246.632 198.101 248.842 190.41 248.83C182.721 248.843 175.192 246.635 168.728 242.473ZM180.621 190.79V186.07C180.621 185.02 181.48 184.17 182.52 184.17H195.411C197.371 184.17 199.32 183.69 201.051 182.78L203.941 181.28C204.771 184.588 204.019 188.103 201.941 190.79H180.621ZM180.617 195.792H200.582V202.659C200.582 207.765 196.603 212.469 190.428 212.469C185.019 212.469 180.617 208.068 180.617 202.659V195.792ZM230.581 208.66C230.581 214.332 229.38 219.94 227.056 225.115C224.732 230.289 221.338 234.912 217.098 238.68V229.515C217.098 220.692 210.36 213.415 201.759 212.556C204.127 209.93 205.582 206.466 205.582 202.659V194.215C209.714 189.217 210.397 182.391 207.52 176.64C207.371 176.343 207.164 176.079 206.911 175.863C206.659 175.646 206.366 175.482 206.05 175.38C205.734 175.278 205.401 175.239 205.07 175.267C204.738 175.294 204.416 175.387 204.121 175.54L198.741 178.35C197.714 178.89 196.571 179.171 195.411 179.17H182.52C178.72 179.17 175.63 182.26 175.621 186.06C175.621 189.322 175.617 195.085 175.617 202.659C175.617 206.457 177.066 209.913 179.424 212.537C170.655 213.229 163.728 220.571 163.728 229.514V238.68C159.49 234.91 156.097 230.287 153.772 225.113C151.448 219.938 150.244 214.331 150.241 208.659C150.241 201.739 152.031 194.909 155.421 188.929C156.101 187.729 155.681 186.199 154.481 185.519C153.321 184.859 151.731 185.309 151.071 186.459C147.249 193.234 145.241 200.881 145.242 208.659C145.242 219.882 149.312 230.147 156.159 238.095H28.222C26.715 238.095 25.419 236.868 25.419 235.302V29.4079C25.4248 28.682 25.7112 27.9864 26.2181 27.4667C26.7251 26.9471 27.4134 26.6437 28.139 26.6199H156.89V51.0199C156.89 55.1899 160.29 58.5899 164.46 58.5899H188.875V163.503C180.509 163.732 172.391 166.338 165.33 171.081C165.057 171.264 164.824 171.499 164.642 171.773C164.46 172.046 164.334 172.353 164.271 172.675C164.207 172.997 164.208 173.329 164.273 173.651C164.338 173.972 164.466 174.278 164.649 174.551C165.389 175.661 167 175.981 168.12 175.231C174.689 170.821 182.28 168.481 190.08 168.481C212.79 168.48 230.581 186.472 230.581 208.66Z" fill="black"/>
<path d="M46.25 206.63H80.25C80.913 206.63 81.5489 206.367 82.0178 205.898C82.4866 205.429 82.75 204.793 82.75 204.13C82.75 203.467 82.4866 202.831 82.0178 202.362C81.5489 201.893 80.913 201.63 80.25 201.63H46.25C44.87 201.63 43.74 202.75 43.74 204.13C43.74 205.51 44.871 206.63 46.25 206.63ZM133.07 217.51H46.241C45.578 217.51 44.9421 217.773 44.4732 218.242C44.0044 218.711 43.741 219.347 43.741 220.01C43.741 220.673 44.0044 221.309 44.4732 221.778C44.9421 222.247 45.578 222.51 46.241 222.51H133.07C133.733 222.51 134.369 222.247 134.838 221.778C135.307 221.309 135.57 220.673 135.57 220.01C135.57 219.347 135.307 218.711 134.838 218.242C134.369 217.773 133.733 217.51 133.07 217.51ZM73.39 125.1L93.58 138.92C94.41 139.5 95.559 139.5 96.399 138.92L146.399 104.69C146.944 104.312 147.317 103.735 147.439 103.084C147.561 102.432 147.421 101.759 147.049 101.21C146.289 100.12 144.669 99.81 143.569 100.56L94.99 133.83L74.8 120C73.96 119.43 72.81 119.43 71.97 120L48.741 135.911V96.08C48.741 95.417 48.4776 94.7811 48.0088 94.3122C47.5399 93.8434 46.904 93.58 46.241 93.58C45.578 93.58 44.9421 93.8434 44.4732 94.3122C44.0044 94.7811 43.741 95.417 43.741 96.08V156.83C43.741 158.208 44.849 159.33 46.241 159.33H144.98C145.643 159.33 146.279 159.067 146.748 158.598C147.217 158.129 147.48 157.493 147.48 156.83C147.48 155.46 146.371 154.34 145.001 154.34C145.001 154.33 144.991 154.33 144.98 154.33H48.741V141.971L73.39 125.1ZM147.743 42.812H46.247C45.584 42.812 44.9481 43.0754 44.4792 43.5442C44.0104 44.0131 43.747 44.649 43.747 45.312C43.747 45.9751 44.0104 46.6109 44.4792 47.0798C44.9481 47.5486 45.584 47.812 46.247 47.812H147.743C148.406 47.812 149.042 47.5486 149.511 47.0798C149.98 46.6109 150.243 45.9751 150.243 45.312C150.243 44.649 149.98 44.0131 149.511 43.5442C149.042 43.0754 148.406 42.812 147.743 42.812ZM147.741 59.42H46.25C45.587 59.42 44.9511 59.6834 44.4822 60.1522C44.0134 60.6211 43.75 61.257 43.75 61.92C43.75 62.5831 44.0134 63.2189 44.4822 63.6878C44.9511 64.1566 45.587 64.42 46.25 64.42H147.74C148.403 64.4201 149.039 64.1569 149.508 63.6881C149.977 63.2194 150.24 62.5836 150.24 61.9205C150.241 61.2575 149.977 60.6215 149.509 60.1526C149.04 59.6837 148.404 59.4201 147.741 59.42ZM88.741 78.53C88.741 77.15 87.621 76.03 86.251 76.03C85.588 76.03 84.9521 76.2934 84.4832 76.7622C84.0144 77.2311 83.751 77.867 83.751 78.53C83.751 79.1931 84.0144 79.8289 84.4832 80.2978C84.9521 80.7666 85.588 81.03 86.251 81.03C87.621 81.03 88.741 79.91 88.741 78.53ZM46.25 81.03H76.25C77.62 81.03 78.74 79.91 78.74 78.53C78.74 77.15 77.62 76.03 76.25 76.03H46.25C45.587 76.03 44.9511 76.2934 44.4822 76.7622C44.0134 77.2311 43.75 77.867 43.75 78.53C43.75 79.1931 44.0134 79.8289 44.4822 80.2978C44.9511 80.7666 45.587 81.03 46.25 81.03ZM147.741 76.03H96.241C94.871 76.03 93.741 77.15 93.741 78.53C93.741 79.91 94.871 81.03 96.241 81.03H147.741C148.404 81.03 149.04 80.7666 149.509 80.2978C149.978 79.8289 150.241 79.1931 150.241 78.53C150.241 77.867 149.978 77.2311 149.509 76.7622C149.04 76.2934 148.404 76.03 147.741 76.03ZM157.3 177.94C156.849 178.428 156.611 179.075 156.637 179.739C156.663 180.403 156.952 181.029 157.44 181.48C157.928 181.927 158.573 182.163 159.234 182.137C159.895 182.111 160.519 181.824 160.97 181.34C161.91 180.33 161.85 178.75 160.84 177.81C159.871 176.91 158.21 176.97 157.3 177.94Z" fill="black"/>
</svg>
